# xmcd
#
# Track frame offsets:
#	150
#	8922
#	19547
#	32263
#	52357
#	67355
#	80547
#	89499
#	102277
#	111748
#	122060
#	134151
#	146751
#	157355
#	167479
#	179485
#	197724
#	209962
#	221953
#	231393
#
# Disc length: 3225 seconds
#
# Revision: 0
# Processed by: cddbd v1.4PL0 Copyright (c) Steve Scherf et al.
# Submitted via: dBpowerAMP V4.0
#
DISCID=480c9714
DTITLE=Smiley Bates - AllMy Best
DYEAR=1900
DGENRE=Country
TTITLE0=Bent River Boogie (Instramental)
TTITLE1=Wreck Of The Old 97
TTITLE2=Don't Make Me Go To School
TTITLE3=Book Of Memories
TTITLE4=The Last Public Hanging
TTITLE5=Flowers For Mamma
TTITLE6=When Papa Played The Dobro
TTITLE7=I'll Go Get The Tool Box
TTITLE8=Bill McCoy
TTITLE9=Drinking Tequilla (Instramental)
TTITLE10=Whiskey Creek (Instramental)
TTITLE11=God's Colouring Book
TTITLE12=Sorrow Overtakes The Wine
TTITLE13=One More Time
TTITLE14=Brown To Blue
TTITLE15=House Of Shame
TTITLE16=Listen Spot
TTITLE17=Th're All Going Home But One
TTITLE18=Your Way Of Thinking
TTITLE19=Rocky Mountain Ride (Instramental)
EXTD=\n\n                                                                  Les
EXTT0=
EXTT1=
EXTT2=
EXTT3=
EXTT4=
EXTT5=
EXTT6=
EXTT7=
EXTT8=
EXTT9=
EXTT10=
EXTT11=
EXTT12=
EXTT13=
EXTT14=
EXTT15=
EXTT16=
EXTT17=
EXTT18=
EXTT19=
PLAYORDER=
